# xmcd
#
# Track frame offsets:
#	150
#	18792
#	40170
#
# Disc length: 955 seconds
#
# Revision: 0
# Processed by: cddbd v1.4PL0 Copyright (c) Steve Scherf et al.
# Submitted via: dBpowerAMP V4.0
#
DISCID=1603b903
DTITLE=Carleen Anderson - Woman In Me (Single)
DYEAR=1998
DGENRE=Soul
TTITLE0=Woman In Me
TTITLE1=Don't Start Misbehavin'
TTITLE2=Show Me The Way
EXTD=
EXTT0=
EXTT1=
EXTT2=
PLAYORDER=
